<svg width="38" height="36" viewBox="0 0 38 36" fill="none"
  xmlns="http://www.w3.org/2000/svg">
  <g id="Rectangle" filter="url(#filter0_d_5_2399)">
    <path fill-rule="evenodd" id="main-path" clip-rule="evenodd" d="M3 14.6159C3 16.194 3.74501 17.6795 5.0098 18.6233L15.9416 26.7804C17.708 28.0984 20.129 28.1045 21.9019 26.7953L32.9701 18.6225C34.2467 17.6799 35 16.1872 35 14.6002V8C35 5.23858 32.7614 3 30 3H8C5.23858 3 3 5.23858 3 8V14.6159Z"/>
    <path d="M15.0446 27.9826L4.11274 19.8255C2.46852 18.5986 1.5 16.6675 1.5 14.6159V8C1.5 4.41015 4.41015 1.5 8 1.5H30C33.5899 1.5 36.5 4.41015 36.5 8V14.6002C36.5 16.6632 35.5207 18.6037 33.8611 19.8292L22.7929 28.002C20.4881 29.7039 17.3408 29.696 15.0446 27.9826Z" stroke="black" stroke-width="3"/>
  </g>
  <defs>
    <filter id="filter0_d_5_2399" x="0" y="0" width="38" height="35.7731" filterUnits="userSpaceOnUse" color-interpolation-filters="sRGB">
      <feFlood flood-opacity="0" result="BackgroundImageFix"/>
      <feColorMatrix in="SourceAlpha" type="matrix" values="0 0 0 0 0 0 0 0 0 0 0 0 0 0 0 0 0 0 127 0" result="hardAlpha"/>
      <feOffset dy="5"/>
      <feColorMatrix type="matrix" values="0 0 0 0 0 0 0 0 0 0 0 0 0 0 0 0 0 0 1 0"/>
      <feBlend mode="normal" in2="BackgroundImageFix" result="effect1_dropShadow_5_2399"/>
      <feBlend mode="normal" in="SourceGraphic" in2="effect1_dropShadow_5_2399" result="shape"/>
    </filter>
  </defs>
</svg>
